<?xml version="1.0" encoding="utf-8"?>
<!-- Generator: Adobe Illustrator 27.0.0, SVG Export Plug-In . SVG Version: 6.00 Build 0)  -->
<svg version="1.1" id="Layer_1" xmlns="http://www.w3.org/2000/svg" xmlns:xlink="http://www.w3.org/1999/xlink" x="0px" y="0px"
	 viewBox="500 450 1050 1050" preserveAspectRatio="xMidYMid meet" style="enable-background:new 0 0 2000 2000;" xml:space="preserve">
<style type="text/css">
	.st0{display:none;fill:#0277BF;}
	.st1{fill:#0277BF;}
	.st2{fill:#026BC1;}
	.st3{fill:#7AB002;}
	.st4{fill:url(#SVGID_1_);}
	.st5{opacity:0.6;}
	.st6{fill:url(#SVGID_00000128445801066129652480000010945863572881217671_);}
	.st7{fill:url(#SVGID_00000160157626731856418720000004825021874010406552_);}
	.st8{fill:url(#SVGID_00000012444384341444074550000014578040647303365271_);}
	.st9{opacity:0.1;}
	.st10{filter:url(#Adobe_OpacityMaskFilter);}
	.st11{filter:url(#Adobe_OpacityMaskFilter_00000067215423103958440330000012787861160075731338_);}
	
		.st12{mask:url(#SVGID_00000059281603540399188900000014488382367675073936_);fill:url(#SVGID_00000146460444105506816020000001780374990772883076_);}
	.st13{fill:#3300BF;}
	.st14{filter:url(#Adobe_OpacityMaskFilter_00000058546990998471918030000001360474659236611753_);}
	.st15{filter:url(#Adobe_OpacityMaskFilter_00000121246301153058547480000005568418554219360164_);}
	
		.st16{mask:url(#SVGID_00000129164834241483870600000013327864860274847887_);fill:url(#SVGID_00000134936507641472068350000012588366427561135500_);}
	.st17{fill:url(#SVGID_00000103250751808676987000000005215635660807268491_);}
	.st18{filter:url(#Adobe_OpacityMaskFilter_00000124883929381924085480000006212359191092952737_);}
	.st19{filter:url(#Adobe_OpacityMaskFilter_00000125582687192456693300000015878964573770919841_);}
	
		.st20{mask:url(#SVGID_00000134240263904557527340000006712455231387791538_);fill:url(#SVGID_00000091005922203260011360000007576230097342887088_);}
	.st21{opacity:0.07;fill:#3300BF;}
	.st22{opacity:0.3;fill:#EEC10C;}
	.st23{opacity:0.5;}
	.st24{fill:#CECCCC;}
	.st25{filter:url(#Adobe_OpacityMaskFilter_00000012442607699384675960000006968075510907742113_);}
	.st26{filter:url(#Adobe_OpacityMaskFilter_00000107558520877081595500000004872125217214536115_);}
	
		.st27{mask:url(#SVGID_00000005236254191945485780000007127969796751764617_);fill:url(#SVGID_00000044176491124479027180000015429363544427014837_);}
	.st28{opacity:0.6;fill:url(#SVGID_00000119810878639635251050000009382929572318531972_);}
	.st29{opacity:0.5;fill:#EEC10C;}
</style>
<path class="st0" d="M1248.86,932.42l-69.08,39.88l-40.63,23.47l-28.43,16.41l-69.08,39.88l-50.55,29.18
	c-11.45,6.61-25.56,6.61-37.01,0l-50.55-29.2l-69.06-39.86h-0.02l-28.4-16.41l-40.66-23.47l-69.06-39.88l-69.08-39.88l-60.48-34.9h0
	c0-4.4,0-5.51,0-9.91l60.48-34.93l69.06-39.88l69.08-39.88l23.45-13.54l45.61-26.32l69.08-39.88l50.55-29.19
	c11.45-6.61,25.57-6.61,37.02,0l50.55,29.19l69.08,39.88l-45.61,26.32l-23.47,13.56l-69.06,39.86l-69.06,39.88l-60.5,34.93
	c-3.81,2.2-3.81,7.71,0,9.91l0,0l60.5,34.93L955,922.27c10.88,6.28,24.28,6.28,35.16,0l51.48-29.71l60.48-34.93l8.61-4.95l8.6,4.95
	l60.45,34.9L1248.86,932.42z"/>
<path class="st1" d="M1229.66,872.4l-208.28,143.31c-82.92,47.23-184.68,46.87-267.26-0.94l0,0
	c-120.71-69.89-121.52-243.89-1.45-314.89l107.42-63.52c16.69-9.87,37.61-9.13,53.55,1.91L1229.66,872.4z"/>
<rect x="693.48" y="824.56" class="st1" width="386.37" height="108.79"/>
<polygon class="st3" points="1433.21,945.88 1375.27,979.33 1317.33,1012.79 1259.36,979.33 1201.42,945.86 1177.59,932.11 
	1143.46,912.42 1085.52,878.96 1027.55,845.49 976.83,816.21 969.61,812.05 1027.55,778.59 1085.52,745.12 1143.46,778.59 
	1201.42,812.05 1208.62,816.21 1259.36,845.51 1317.31,878.96 1375.27,912.42 1409.36,932.11 "/>
<g>
	<path class="st1" d="M722.46,1300.35c-12.36,0-22.58-1.45-30.66-4.35c-8.09-2.9-14.49-7.51-19.22-13.84
		c-4.73-6.33-8.09-14.61-10.07-24.83c-1.98-10.22-2.97-22.65-2.97-37.3s0.99-27.04,2.97-37.18c1.98-10.14,5.34-18.38,10.07-24.71
		c4.73-6.33,11.25-10.98,19.56-13.96c8.31-2.97,18.88-4.46,31.69-4.46c4.73,0,9.88,0.31,15.45,0.92c5.57,0.61,11.02,1.37,16.36,2.29
		c5.34,0.92,9.99,1.83,13.96,2.75l-1.14,31.81c-2.75-0.46-6.29-0.92-10.64-1.37c-4.35-0.46-8.81-0.84-13.39-1.14
		c-4.58-0.3-8.92-0.46-13.04-0.46c-6.26,0-11.41,0.73-15.45,2.17c-4.04,1.45-7.17,3.89-9.38,7.32c-2.21,3.43-3.7,8.05-4.46,13.84
		c-0.77,5.8-1.14,13.2-1.14,22.2c0,8.85,0.38,16.21,1.14,22.08c0.76,5.87,2.25,10.53,4.46,13.96c2.21,3.43,5.34,5.87,9.38,7.32
		c4.04,1.45,9.27,2.17,15.67,2.17c6.1,0,12.7-0.26,19.79-0.8c7.09-0.53,12.93-1.03,17.5-1.49l0.69,31.58
		c-3.51,0.77-7.86,1.6-13.04,2.52c-5.19,0.92-10.75,1.64-16.7,2.17C733.9,1300.08,728.1,1300.35,722.46,1300.35z"/>
	<path class="st1" d="M818.57,1300.35c-12.97,0-22.65-3.05-29.06-9.15c-6.41-6.1-9.61-15.56-9.61-28.37
		c0-9.15,1.72-16.17,5.15-21.05c3.43-4.88,8.43-8.31,14.99-10.3c6.56-1.98,14.42-3.2,23.57-3.66l23.11-1.6v-5.03
		c0-3.81-1.18-6.48-3.55-8.01c-2.37-1.52-5.69-2.29-9.95-2.29c-4.58,0-9.76,0.15-15.56,0.46c-5.8,0.31-11.44,0.69-16.93,1.14
		c-5.49,0.46-10.3,0.92-14.42,1.37l-1.14-27.23c4.27-1.07,9.34-2.13,15.22-3.2c5.87-1.07,12.01-1.94,18.42-2.63
		c6.41-0.69,12.43-1.03,18.08-1.03c10.22,0,19.03,1.14,26.43,3.43c7.4,2.29,13.04,6.26,16.93,11.9c3.89,5.65,5.83,13.58,5.83,23.8
		v48.51c0.46,1.37,1.49,2.52,3.09,3.43c1.6,0.92,3.32,1.53,5.15,1.83l-0.69,25.86c-2.44,0.15-5.03,0.38-7.78,0.69
		c-2.75,0.3-5.3,0.46-7.67,0.46c-2.37,0-4.31-0.08-5.83-0.23c-4.58-0.15-8.39-1.03-11.44-2.63c-3.05-1.6-5.26-3.16-6.64-4.69
		c-2.29,1.07-5.34,2.25-9.15,3.55c-3.81,1.3-8.01,2.4-12.58,3.32C827.95,1299.89,823.29,1300.35,818.57,1300.35z M828.63,1272.43
		c2.29,0,4.54-0.26,6.75-0.8c2.21-0.53,4.35-1.18,6.41-1.95c2.06-0.76,3.7-1.45,4.92-2.06v-18.76l-16.7,1.6
		c-3.66,0.31-6.37,1.41-8.12,3.32c-1.76,1.91-2.63,4.54-2.63,7.89c0,3.36,0.76,5.99,2.29,7.89
		C823.06,1271.48,825.43,1272.43,828.63,1272.43z"/>
	<path class="st1" d="M908.03,1344.28v-161.77h38.67l0.46,6.64c1.98-1.37,4.42-2.78,7.32-4.23c2.9-1.45,6.14-2.67,9.73-3.66
		c3.58-0.99,7.05-1.49,10.41-1.49c10.53,0,19.03,2.29,25.51,6.87c6.48,4.58,11.17,11.33,14.07,20.25c2.9,8.92,4.35,20.02,4.35,33.29
		c0,13.88-1.64,25.25-4.92,34.09c-3.28,8.85-8.58,15.41-15.9,19.68c-7.32,4.27-17.09,6.41-29.29,6.41c-3.36,0-7.09-0.34-11.21-1.03
		s-7.48-1.26-10.07-1.72v46.68H908.03z M960.66,1268.09c4.73,0,8.39-1.14,10.98-3.43c2.59-2.29,4.42-5.61,5.49-9.95
		c1.07-4.35,1.6-9.57,1.6-15.67c0-10.37-1.34-17.47-4-21.28c-2.67-3.81-6.6-5.72-11.78-5.72c-1.53,0-3.28,0.23-5.26,0.69
		c-1.98,0.46-3.89,0.99-5.72,1.6c-1.83,0.61-3.43,1.22-4.81,1.83v50.8c1.37,0.15,3.32,0.38,5.83,0.69
		C955.51,1267.94,958.07,1268.09,960.66,1268.09z"/>
	<path class="st3" d="M1114.43,1297.6v-121.27h-37.53v-33.64h114.41v33.64h-36.15v121.27H1114.43z"/>
	<path class="st3" d="M1237.3,1300.35c-12.97,0-22.65-3.05-29.06-9.15c-6.41-6.1-9.61-15.56-9.61-28.37
		c0-9.15,1.72-16.17,5.15-21.05c3.43-4.88,8.43-8.31,14.99-10.3c6.56-1.98,14.42-3.2,23.57-3.66l23.11-1.6v-5.03
		c0-3.81-1.18-6.48-3.55-8.01c-2.37-1.52-5.68-2.29-9.95-2.29c-4.58,0-9.76,0.15-15.56,0.46c-5.8,0.31-11.44,0.69-16.93,1.14
		c-5.49,0.46-10.3,0.92-14.42,1.37l-1.14-27.23c4.27-1.07,9.34-2.13,15.22-3.2c5.87-1.07,12.01-1.94,18.42-2.63
		c6.41-0.69,12.43-1.03,18.08-1.03c10.22,0,19.03,1.14,26.43,3.43c7.4,2.29,13.04,6.26,16.93,11.9c3.89,5.65,5.83,13.58,5.83,23.8
		v48.51c0.46,1.37,1.49,2.52,3.09,3.43c1.6,0.92,3.32,1.53,5.15,1.83l-0.69,25.86c-2.44,0.15-5.03,0.38-7.78,0.69
		c-2.75,0.3-5.3,0.46-7.67,0.46c-2.37,0-4.31-0.08-5.83-0.23c-4.58-0.15-8.39-1.03-11.44-2.63c-3.05-1.6-5.26-3.16-6.64-4.69
		c-2.29,1.07-5.34,2.25-9.15,3.55c-3.81,1.3-8.01,2.4-12.58,3.32S1242.03,1300.35,1237.3,1300.35z M1247.37,1272.43
		c2.29,0,4.54-0.26,6.75-0.8c2.21-0.53,4.35-1.18,6.41-1.95c2.06-0.76,3.7-1.45,4.92-2.06v-18.76l-16.7,1.6
		c-3.66,0.31-6.37,1.41-8.12,3.32c-1.75,1.91-2.63,4.54-2.63,7.89c0,3.36,0.76,5.99,2.29,7.89
		C1241.8,1271.48,1244.17,1272.43,1247.37,1272.43z"/>
	<path class="st3" d="M1377.34,1300.35c-4.12,0-9.23-0.23-15.33-0.69c-6.1-0.46-12.32-1.03-18.65-1.72
		c-6.33-0.69-11.94-1.33-16.82-1.94v-158.57h39.36v47.37c2.13-0.76,4.8-1.52,8.01-2.29c3.2-0.76,6.48-1.41,9.84-1.95
		c3.35-0.53,6.41-0.8,9.15-0.8c10.98,0,19.71,2.33,26.2,6.98c6.48,4.65,11.1,11.29,13.84,19.91c2.75,8.62,4.12,19.11,4.12,31.46
		c0,15.41-1.79,27.65-5.38,36.73c-3.59,9.08-9.72,15.6-18.42,19.56S1392.59,1300.35,1377.34,1300.35z M1377.8,1267.86
		c5.64,0,9.8-1.14,12.47-3.43c2.67-2.29,4.5-5.61,5.49-9.95c0.99-4.35,1.49-9.57,1.49-15.67c0-6.71-0.5-12.01-1.49-15.9
		c-0.99-3.89-2.63-6.67-4.92-8.35c-2.29-1.68-5.34-2.52-9.15-2.52c-1.68,0-3.51,0.19-5.49,0.57c-1.98,0.38-3.89,0.8-5.72,1.26
		c-1.83,0.46-3.36,0.99-4.58,1.6v51.71c1.52,0.15,3.47,0.31,5.83,0.46C1374.1,1267.78,1376.12,1267.86,1377.8,1267.86z"/>
</g>
<g>
	<g>
		
			<linearGradient id="SVGID_1_" gradientUnits="userSpaceOnUse" x1="1150.2852" y1="585.9127" x2="1221.4146" y2="769.6071" gradientTransform="matrix(0.9858 -0.168 0.168 0.9858 -97.8146 193.7406)">
			<stop  offset="7.458905e-08" style="stop-color:#7AB002"/>
			<stop  offset="0.2394" style="stop-color:#7AB002"/>
			<stop  offset="0.5615" style="stop-color:#7AB002"/>
		</linearGradient>
		<path class="st4" d="M1313.93,587.96l-0.92-1.54c-26.71-44.93-84.77-59.69-129.69-32.99l-174.96,104
			c7.5,0.68,56.37,6.88,87.17,54.81c28.08,43.7,24.27,85.88,17.35,105.31l168.06-99.9C1325.87,690.95,1340.64,632.89,1313.93,587.96
			z"/>
		<g class="st5">
			
				<linearGradient id="SVGID_00000114044667738715505860000006114250436729903549_" gradientUnits="userSpaceOnUse" x1="1158.1896" y1="683.389" x2="1562.8903" y2="880.78" gradientTransform="matrix(0.9858 -0.168 0.168 0.9858 -97.8146 193.7406)">
				<stop  offset="0" style="stop-color:#FCD91B"/>
				<stop  offset="0.2394" style="stop-color:#DDA103"/>
				<stop  offset="0.3128" style="stop-color:#E1AA07"/>
				<stop  offset="0.435" style="stop-color:#EDC413"/>
				<stop  offset="0.5615" style="stop-color:#FDE523"/>
			</linearGradient>
			<path style="fill:url(#SVGID_00000114044667738715505860000006114250436729903549_);" d="M1313.93,587.96l-0.92-1.54
				c-15.33-25.78-40.98-41.61-68.55-45.39c21.85,7.61,50.27,22.16,64.07,48.7c24.16,46.48,10.84,95.51-25.81,121.34
				c-35.82,21.56-149.46,89.91-168.24,101.2c-0.51,1.88-1.04,3.68-1.61,5.27l168.06-99.9
				C1325.87,690.95,1340.64,632.89,1313.93,587.96z"/>
		</g>
		<g>
			
				<linearGradient id="SVGID_00000128445468269408330650000007414756276069106560_" gradientUnits="userSpaceOnUse" x1="1097.1007" y1="774.5782" x2="932.4498" y2="384.7721" gradientTransform="matrix(0.9858 -0.168 0.168 0.9858 -97.8146 193.7406)">
				<stop  offset="0" style="stop-color:#FCD91B"/>
				<stop  offset="0.2394" style="stop-color:#DDA103"/>
				<stop  offset="0.3128" style="stop-color:#E1AA07"/>
				<stop  offset="0.435" style="stop-color:#EDC413"/>
				<stop  offset="0.5615" style="stop-color:#FDE523"/>
			</linearGradient>
			<path style="fill:url(#SVGID_00000128445468269408330650000007414756276069106560_);" d="M1100.34,702.59
				c-26.88-40.17-67.74-49.85-80.54-51.96l-11.44,6.8c7.5,0.68,56.37,6.88,87.17,54.81c28.08,43.7,24.27,85.88,17.35,105.31
				l10.82-6.43C1129.92,785.92,1129.54,746.23,1100.34,702.59z"/>
		</g>
		
			<radialGradient id="SVGID_00000149362906392072704900000012630600668102714297_" cx="821.8525" cy="781.7509" r="253.42" fx="812.2328" fy="782.2007" gradientTransform="matrix(0.9858 -0.168 0.168 0.9858 -97.8146 193.7406)" gradientUnits="userSpaceOnUse">
			<stop  offset="0" style="stop-color:#FFFFFF"/>
			<stop  offset="0.3673" style="stop-color:#FFFFFF"/>
			<stop  offset="1" style="stop-color:#FFFFFF"/>
		</radialGradient>
		<path style="fill:url(#SVGID_00000149362906392072704900000012630600668102714297_);" d="M1100.46,709.33
			c-31.8-49.5-82.27-55.9-90.01-56.6l-5.88,3.5L818.01,767.11c-46.39,27.58-61.64,87.53-34.07,133.92l0.95,1.6
			c27.57,46.38,87.53,61.64,133.92,34.06l186.55-110.88l13.01-7.74C1125.52,798.01,1129.45,754.46,1100.46,709.33z"/>
		<g class="st9">
			<defs>
				<filter id="Adobe_OpacityMaskFilter" filterUnits="userSpaceOnUse" x="770.23" y="740.89" width="353.24" height="209.54">
					<feFlood  style="flood-color:white;flood-opacity:1" result="back"/>
					<feBlend  in="SourceGraphic" in2="back" mode="normal"/>
				</filter>
			</defs>
			
				<mask maskUnits="userSpaceOnUse" x="770.23" y="740.89" width="353.24" height="209.54" id="SVGID_00000041987502133420844730000005976420359632751531_">
				<g class="st10">
					<defs>
						
							<filter id="Adobe_OpacityMaskFilter_00000165922808240447189440000015932359579259067837_" filterUnits="userSpaceOnUse" x="770.23" y="740.89" width="353.24" height="209.54">
							<feFlood  style="flood-color:white;flood-opacity:1" result="back"/>
							<feBlend  in="SourceGraphic" in2="back" mode="normal"/>
						</filter>
					</defs>
					
						<mask maskUnits="userSpaceOnUse" x="770.23" y="740.89" width="353.24" height="209.54" id="SVGID_00000041987502133420844730000005976420359632751531_">
					</mask>
					
						<radialGradient id="SVGID_00000098204640479336156310000010537259497442657921_" cx="1108.1329" cy="560.6514" r="661.4262" gradientTransform="matrix(0.9858 -0.168 0.168 0.9858 -97.8146 193.7406)" gradientUnits="userSpaceOnUse">
						<stop  offset="0" style="stop-color:#FFFFFF"/>
						<stop  offset="1" style="stop-color:#000000"/>
					</radialGradient>
					
						<path style="mask:url(#SVGID_00000041987502133420844730000005976420359632751531_);fill:url(#SVGID_00000098204640479336156310000010537259497442657921_);" d="
						M1123.1,794.29c1.17-14.9-0.25-33.42-7.21-53.41c-25.15,14.57-75.33,43.82-166.26,97.35c-102.51,60.34-156.1,31.4-179.27,8.11
						c-0.92,18.54,3.4,37.54,13.6,54.69l0.95,1.6c22.41,37.71,66.23,54.84,106.77,45.11c12.41-5.95,26.37-14.21,40.98-25.74
						C978.72,885.64,1064.22,827.7,1123.1,794.29z"/>
				</g>
			</mask>
			<path class="st13" d="M1123.1,794.29c1.17-14.9-0.25-33.42-7.21-53.41c-25.15,14.57-75.33,43.82-166.26,97.35
				c-102.51,60.34-156.1,31.4-179.27,8.11c-0.92,18.54,3.4,37.54,13.6,54.69l0.95,1.6c22.41,37.71,66.23,54.84,106.77,45.11
				c12.41-5.95,26.37-14.21,40.98-25.74C978.72,885.64,1064.22,827.7,1123.1,794.29z"/>
		</g>
		<g>
			<defs>
				
					<filter id="Adobe_OpacityMaskFilter_00000107573649830424295240000018203460876983149197_" filterUnits="userSpaceOnUse" x="1132.1" y="636.05" width="195.11" height="154.48">
					<feFlood  style="flood-color:white;flood-opacity:1" result="back"/>
					<feBlend  in="SourceGraphic" in2="back" mode="normal"/>
				</filter>
			</defs>
			
				<mask maskUnits="userSpaceOnUse" x="1132.1" y="636.05" width="195.11" height="154.48" id="SVGID_00000114787731978998184640000017657612423997575812_">
				<g style="filter:url(#Adobe_OpacityMaskFilter_00000107573649830424295240000018203460876983149197_);">
					<defs>
						
							<filter id="Adobe_OpacityMaskFilter_00000114777362526475263730000017588545966099181211_" filterUnits="userSpaceOnUse" x="1132.1" y="636.05" width="195.11" height="154.48">
							<feFlood  style="flood-color:white;flood-opacity:1" result="back"/>
							<feBlend  in="SourceGraphic" in2="back" mode="normal"/>
						</filter>
					</defs>
					
						<mask maskUnits="userSpaceOnUse" x="1132.1" y="636.05" width="195.11" height="154.48" id="SVGID_00000114787731978998184640000017657612423997575812_">
					</mask>
					
						<linearGradient id="SVGID_00000167357576932976776200000009700931812638034577_" gradientUnits="userSpaceOnUse" x1="977.624" y1="767.0499" x2="1783.0348" y2="662.5707" gradientTransform="matrix(0.9858 -0.168 0.168 0.9858 -97.8146 193.7406)">
						<stop  offset="0" style="stop-color:#FFFFFF"/>
						<stop  offset="0.5615" style="stop-color:#000000"/>
					</linearGradient>
					
						<path style="mask:url(#SVGID_00000114787731978998184640000017657612423997575812_);fill:url(#SVGID_00000167357576932976776200000009700931812638034577_);" d="
						M1132.1,751.28c0,0,2.53,21.7,2.03,39.25c0,0,117.14-64.66,179.63-105.56c8.84-14.78,13.49-31.74,13.45-48.93
						C1279.11,670.03,1132.1,751.28,1132.1,751.28z"/>
				</g>
			</mask>
			
				<linearGradient id="SVGID_00000038372875797916444860000010749325374345012616_" gradientUnits="userSpaceOnUse" x1="977.624" y1="767.0499" x2="1783.0348" y2="662.5707" gradientTransform="matrix(0.9858 -0.168 0.168 0.9858 -97.8146 193.7406)">
				<stop  offset="0" style="stop-color:#FFFFFF"/>
				<stop  offset="0.5615" style="stop-color:#FDE523"/>
			</linearGradient>
			<path style="fill:url(#SVGID_00000038372875797916444860000010749325374345012616_);" d="M1132.1,751.28
				c0,0,2.53,21.7,2.03,39.25c0,0,117.14-64.66,179.63-105.56c8.84-14.78,13.49-31.74,13.45-48.93
				C1279.11,670.03,1132.1,751.28,1132.1,751.28z"/>
		</g>
		<defs>
			
				<filter id="Adobe_OpacityMaskFilter_00000178195976821531876640000013531034700338476941_" filterUnits="userSpaceOnUse" x="792.65" y="660.01" width="252.54" height="170.84">
				<feFlood  style="flood-color:white;flood-opacity:1" result="back"/>
				<feBlend  in="SourceGraphic" in2="back" mode="normal"/>
			</filter>
		</defs>
		
			<mask maskUnits="userSpaceOnUse" x="792.65" y="660.01" width="252.54" height="170.84" id="SVGID_00000140010190858182913440000009556079649478030234_">
			<g style="filter:url(#Adobe_OpacityMaskFilter_00000178195976821531876640000013531034700338476941_);">
				<defs>
					
						<filter id="Adobe_OpacityMaskFilter_00000003806513357815029090000002765150494816476838_" filterUnits="userSpaceOnUse" x="792.65" y="660.01" width="252.54" height="170.84">
						<feFlood  style="flood-color:white;flood-opacity:1" result="back"/>
						<feBlend  in="SourceGraphic" in2="back" mode="normal"/>
					</filter>
				</defs>
				
					<mask maskUnits="userSpaceOnUse" x="792.65" y="660.01" width="252.54" height="170.84" id="SVGID_00000140010190858182913440000009556079649478030234_">
				</mask>
				
					<radialGradient id="SVGID_00000178178135992934071810000000887753846093414531_" cx="826.4349" cy="578.5042" r="349.087" gradientTransform="matrix(0.9858 -0.168 0.168 0.9858 -97.8146 193.7406)" gradientUnits="userSpaceOnUse">
					<stop  offset="0" style="stop-color:#FFFFFF"/>
					<stop  offset="1" style="stop-color:#000000"/>
				</radialGradient>
				
					<path style="mask:url(#SVGID_00000140010190858182913440000009556079649478030234_);fill:url(#SVGID_00000178178135992934071810000000887753846093414531_);" d="
					M1045.19,671.2c0,0-121.15,66.67-169.42,94.42c-48.28,27.75-47.55,40.19-53.14,56.48c-5.59,16.29-41.51,10.43-26.21-22.83
					c8.16-17.74,34.99-36.89,59.33-50.13c24.34-13.24,153.48-89.13,153.48-89.13S1026.65,662.3,1045.19,671.2z"/>
			</g>
		</mask>
		<path class="st21" d="M1045.19,671.2c0,0-121.15,66.67-169.42,94.42c-48.28,27.75-47.55,40.19-53.14,56.48
			c-5.59,16.29-41.51,10.43-26.21-22.83c8.16-17.74,34.99-36.89,59.33-50.13c24.34-13.24,153.48-89.13,153.48-89.13
			S1026.65,662.3,1045.19,671.2z"/>
		<path class="st22" d="M1035.15,647.24l26.99,11.68l178.28-107.13c0,0-15.58-9.56-43.07-0.22
			C1169.88,560.9,1035.15,647.24,1035.15,647.24z"/>
		<g class="st23">
			<path class="st24" d="M1100.46,709.33c-31.8-49.5-82.27-55.9-90.01-56.6l-4.49,2.67c20.17,3.08,73.99,16.69,101.77,75.68
				c18.62,44.45,12.37,80.72-32.17,106.95c-44.54,26.22-134.27,82.93-158.83,96.78c-13.94,7.86-39.55,15.03-68.39,13.4
				c23.26,5.01,48.4,1.6,70.47-11.52l186.55-110.88l13.01-7.74C1125.52,798.01,1129.45,754.46,1100.46,709.33z"/>
		</g>
	</g>
	<defs>
		
			<filter id="Adobe_OpacityMaskFilter_00000181066717932887687210000008022926648325262760_" filterUnits="userSpaceOnUse" x="844.22" y="678.06" width="143.3" height="83.69">
			<feFlood  style="flood-color:white;flood-opacity:1" result="back"/>
			<feBlend  in="SourceGraphic" in2="back" mode="normal"/>
		</filter>
	</defs>
	
		<mask maskUnits="userSpaceOnUse" x="844.22" y="678.06" width="143.3" height="83.69" id="SVGID_00000098904347066776838300000002544290944967097225_">
		<g style="filter:url(#Adobe_OpacityMaskFilter_00000181066717932887687210000008022926648325262760_);">
			<defs>
				
					<filter id="Adobe_OpacityMaskFilter_00000007389093903464081990000002474222829449117113_" filterUnits="userSpaceOnUse" x="844.22" y="678.06" width="143.3" height="83.69">
					<feFlood  style="flood-color:white;flood-opacity:1" result="back"/>
					<feBlend  in="SourceGraphic" in2="back" mode="normal"/>
				</filter>
			</defs>
			
				<mask maskUnits="userSpaceOnUse" x="844.22" y="678.06" width="143.3" height="83.69" id="SVGID_00000098904347066776838300000002544290944967097225_">
			</mask>
			
				<radialGradient id="SVGID_00000047055016174633838060000017025921349907282080_" cx="910.9" cy="688.9065" r="58.673" gradientTransform="matrix(0.9858 -0.168 0.168 0.9858 -97.8146 193.7406)" gradientUnits="userSpaceOnUse">
				<stop  offset="0" style="stop-color:#FFFFFF"/>
				<stop  offset="1" style="stop-color:#000000"/>
			</radialGradient>
			
				<path style="mask:url(#SVGID_00000098904347066776838300000002544290944967097225_);fill:url(#SVGID_00000047055016174633838060000017025921349907282080_);" d="
				M983.98,678.8c0,0-129.17,72.39-139.34,82.27C834.47,770.95,1014.8,668.37,983.98,678.8z"/>
		</g>
	</mask>
	
		<radialGradient id="SVGID_00000089563105191077066620000001637741539380666034_" cx="910.9" cy="688.9065" r="58.673" gradientTransform="matrix(0.9858 -0.168 0.168 0.9858 -97.8146 193.7406)" gradientUnits="userSpaceOnUse">
		<stop  offset="0" style="stop-color:#F48188"/>
		<stop  offset="1" style="stop-color:#EC1F2C"/>
	</radialGradient>
	<path style="opacity:0.6;fill:url(#SVGID_00000089563105191077066620000001637741539380666034_);" d="M983.98,678.8
		c0,0-129.17,72.39-139.34,82.27C834.47,770.95,1014.8,668.37,983.98,678.8z"/>
	<path class="st29" d="M1197.86,553.84c0,0-129.17,72.39-139.34,82.27C1048.35,645.99,1228.68,543.4,1197.86,553.84z"/>
</g>
</svg>
